<?xml version="1.0" encoding="UTF-8"?>
<svg id="Layer_2" xmlns="http://www.w3.org/2000/svg" viewBox="0 0 646.92 465.76">
  <defs>
    <style>
      .cls-1 {
        fill: #fff;
      }
    </style>
  </defs>
  <g id="Layer_2-2" data-name="Layer_2">
    <g id="GHOST">
      <path class="cls-1" d="M571.74,465.76H229.36c1.67-102.45,3.35-204.89,5.02-307.34C348.71,105.61,463.04,52.81,577.37,0c-1.88,155.25-3.75,310.51-5.63,465.76Z"/>
      <path class="cls-1" d="M236.25,462.34c-78.38,1.14-156.77,2.28-235.15,3.43C.74,328.4.37,191.03,0,53.66c79.71,35.15,159.43,70.29,239.14,105.44-.96,101.08-1.93,202.16-2.89,303.23Z"/>
      <path class="cls-1" d="M644.51,175.3c3.22,0,3.22-5,0-5s-3.22,5,0,5h0Z"/>
    </g>
  </g>
</svg>