<svg xmlns="http://www.w3.org/2000/svg" width="33.222" height="33.222" viewBox="0 0 33.222 33.222">
  <path id="e320944d7a31ef3fd2b32fe72f9e42f3" d="M18.611,8.644a1.661,1.661,0,0,0-1.661,1.661v7.282l-4.038,2.032A1.661,1.661,0,1,0,14.4,22.586l4.952-2.492a1.659,1.659,0,0,0,.915-1.483V10.305a1.661,1.661,0,0,0-1.661-1.661Zm0-6.644A16.611,16.611,0,1,0,35.222,18.611,16.611,16.611,0,0,0,18.611,2Zm0,29.9A13.289,13.289,0,1,1,31.9,18.611,13.289,13.289,0,0,1,18.611,31.9Z" transform="translate(-2 -2)" fill="#fff"/>
</svg>
