<svg xmlns="http://www.w3.org/2000/svg" width="362.802" height="83.027" viewBox="0 0 362.802 83.027">
  <g id="fanshawe-logo-white-1200" transform="translate(-58.26 -60.5)">
    <path id="Path_1084" data-name="Path 1084" d="M203.951,110.589h15.571v6.526H203.951v12.635H196.77V97.114h24.848v6.526H203.944v6.949Zm36.91-13.707,13.987,32.868h-7.509l-2.983-7.318h-13.8l-2.983,7.318h-7.318l13.987-32.868Zm.928,19.209-4.335-10.581-4.335,10.581Zm38.254,1.12-15.291-20.1h-6.621v32.636h7.086V109l15.81,20.752h6.109V97.114H280.05v20.1Zm27.619-6.99c-5.638-1.447-7.038-2.143-7.038-4.287v-.1c0-1.584,1.447-2.847,4.2-2.847s5.6,1.215,8.485,3.215l3.734-5.406a18.9,18.9,0,0,0-12.123-4.15c-6.669,0-11.42,3.918-11.42,9.837v.1c0,6.478,4.246,8.3,10.82,9.98,5.454,1.4,6.574,2.335,6.574,4.15v.1c0,1.911-1.775,3.079-4.71,3.079-3.727,0-6.806-1.536-9.741-3.959l-4.246,5.079a20.789,20.789,0,0,0,13.851,5.222c7.038,0,11.98-3.638,11.98-10.117v-.1C318.018,114.323,314.284,111.941,307.662,110.221Zm36.486-.191H330.906V97.114h-7.181v32.636h7.181v-13.1h13.243v13.1h7.181V97.114h-7.181Zm31.66-13.147L389.8,129.751h-7.509l-2.983-7.318H365.5l-2.983,7.318H355.2l13.987-32.868Zm.928,19.209L372.4,105.51l-4.335,10.581Zm45.019,3.126-7.325-22.192h-6.15l-7.318,22.192-6.765-22.1h-7.693l11.147,32.868H403.9l7.366-21.353,7.365,21.353h6.246l11.147-32.868h-7.509Zm25.551,4.15v-6.854h15.386v-6.389H447.307V103.5h17.482V97.114H440.174v32.636h24.848v-6.389H447.307Z" transform="translate(-43.96 -11.473)" fill="#fff"/>
    <path id="Path_1085" data-name="Path 1085" d="M72.684,81.8l-.02-10.4a.408.408,0,0,1,.3-.341.388.388,0,0,1,.369.116L89.04,86.883l4.471-4.471-9.543-9.557-.007-.007a2.068,2.068,0,0,1-.676-1.529c0-.02.007-10.444.007-10.444a.4.4,0,0,1,.689-.239L99.613,76.31l15.632-15.673a.443.443,0,0,1,.3-.137.388.388,0,0,1,.4.389V71.47a2.382,2.382,0,0,1-.881,1.659l-.034.034L89.743,98.427a.963.963,0,0,1-.7.334.885.885,0,0,1-.6-.239l-15.12-15.1A2.161,2.161,0,0,1,72.684,81.8Zm23.837,30.814a.963.963,0,0,0-.334-.7L70.916,86.631l-.034-.034a2.356,2.356,0,0,0-1.652-.881H58.649a.388.388,0,0,0-.389.4.425.425,0,0,0,.137.3L74.07,102.045,58.4,117.677a.4.4,0,0,0,.239.689H69.08a2.079,2.079,0,0,0,1.529-.676l.007-.007,9.55-9.55,4.471,4.471L68.923,128.312a.392.392,0,0,0-.116.369.416.416,0,0,0,.341.307l10.4-.02a2.141,2.141,0,0,0,1.631-.642l15.1-15.12A.863.863,0,0,0,96.521,112.612Zm29.5,8-15.12-15.1a.874.874,0,0,0-.608-.239.963.963,0,0,0-.7.335L84.316,130.872l-.034.034a2.357,2.357,0,0,0-.881,1.659v10.574a.388.388,0,0,0,.4.389.425.425,0,0,0,.3-.137l15.632-15.673,15.632,15.673a.4.4,0,0,0,.689-.239s.007-10.424.007-10.444a2.079,2.079,0,0,0-.676-1.529l-.007-.007-9.55-9.55,4.471-4.471L126,132.865a.392.392,0,0,0,.369.116.4.4,0,0,0,.3-.341l-.02-10.4A2.094,2.094,0,0,0,126.024,120.612Zm-.532-18.629,15.673-15.632a.4.4,0,0,0-.239-.689H130.482a2.079,2.079,0,0,0-1.529.676l-.007.007-9.55,9.55-4.471-4.471,15.714-15.707a.392.392,0,0,0,.116-.369.4.4,0,0,0-.341-.3l-10.4.02a2.168,2.168,0,0,0-1.631.642l-15.1,15.113a.875.875,0,0,0-.239.608.963.963,0,0,0,.334.7l25.264,25.284.034.034a2.356,2.356,0,0,0,1.652.881h10.581a.388.388,0,0,0,.389-.4.425.425,0,0,0-.137-.3Z" fill="#fff"/>
  </g>
</svg>
