<svg xmlns="http://www.w3.org/2000/svg" width="19.191" height="27.379" viewBox="0 0 19.191 27.379">
  <path id="logo-behance" d="M4.348,30.156H19.787v2.072L4.348,32.5ZM20.98,26.944a7.633,7.633,0,0,1-2.619,1.214,11.172,11.172,0,0,1-3,.382H4.24V5.121H15.065a13.358,13.358,0,0,1,3,.295,6.366,6.366,0,0,1,2.307.971,4.51,4.51,0,0,1,1.492,1.735,6.488,6.488,0,0,1,.52,2.741,5.2,5.2,0,0,1-.8,2.949,5.777,5.777,0,0,1-2.342,1.943A5.534,5.534,0,0,1,22.4,17.94,6.575,6.575,0,0,1,23.426,21.7a6.575,6.575,0,0,1-.677,3.071,5.621,5.621,0,0,1-1.769,2.168Zm-3.764-16.5a2.168,2.168,0,0,0-.781-.815,3.261,3.261,0,0,0-1.11-.416,9.541,9.541,0,0,0-1.318-.087h-4.7V14.61h5.2a3.47,3.47,0,0,0,2.22-.659,2.481,2.481,0,0,0,.781-2.1A3,3,0,0,0,17.216,10.446Zm.208,8.344a4.146,4.146,0,0,0-2.637-.781H9.305V24.48h5.4a6.262,6.262,0,0,0,1.422-.156,3.469,3.469,0,0,0,1.18-.33,2.411,2.411,0,0,0,.815-.937,3.209,3.209,0,0,0,.295-1.527A3.071,3.071,0,0,0,17.424,18.79Z" transform="translate(-4.24 -5.119)" fill="#fff"/>
</svg>
