<svg xmlns="http://www.w3.org/2000/svg" width="28.549" height="27.911" viewBox="0 0 28.549 27.911">
  <path id="logo-linkdin" d="M29.482,30.911V20.793c0-2.442-.892-4.187-3.033-4.187a3.549,3.549,0,0,0-3.212,2.268,3.791,3.791,0,0,0-.178,1.57V30.911H16.992s.178-17.1,0-18.84h6.067v2.617h0a5.812,5.812,0,0,1,5.353-3.14c4.1,0,7.137,2.617,7.137,8.548V30.911ZM10.39,9.454h0A3.109,3.109,0,0,1,7,6.314,3.245,3.245,0,0,1,10.39,3a3.245,3.245,0,0,1,3.39,3.314C13.959,8.059,12.531,9.454,10.39,9.454Zm3.033,21.456H7.357V12.071h6.067Z" transform="translate(-7 -3)" fill="#fff"/>
</svg>
