<svg xmlns="http://www.w3.org/2000/svg" width="199" height="46.266" viewBox="0 0 199 46.266">
  <g id="fanshawe-logo-white-1200" transform="translate(-58.26 -60.5)">
    <path id="Path_1084" data-name="Path 1084" d="M200.772,104.417h8.677v3.636h-8.677v7.041h-4V96.909h13.846v3.636h-9.848v3.872Zm20.567-7.638,7.794,18.315h-4.184l-1.662-4.078H215.6l-1.662,4.078h-4.078l7.794-18.315Zm.517,10.7-2.415-5.9-2.415,5.9Zm21.317.624-8.521-11.2h-3.69v18.186h3.948V103.531l8.81,11.564h3.4V96.909h-3.948v11.2Zm15.39-3.9c-3.142-.806-3.922-1.194-3.922-2.389v-.053c0-.882.806-1.586,2.339-1.586a8.546,8.546,0,0,1,4.728,1.792l2.081-3.013a10.534,10.534,0,0,0-6.756-2.313c-3.716,0-6.364,2.183-6.364,5.481v.053c0,3.61,2.366,4.625,6.029,5.561,3.039.78,3.663,1.3,3.663,2.313v.053c0,1.065-.989,1.716-2.625,1.716a8.34,8.34,0,0,1-5.428-2.206l-2.366,2.83a11.584,11.584,0,0,0,7.718,2.91c3.922,0,6.676-2.027,6.676-5.637v-.053C264.334,106.5,262.253,105.171,258.563,104.212Zm20.332-.107h-7.379v-7.2h-4v18.186h4v-7.3h7.379v7.3h4V96.909h-4Zm17.642-7.326,7.794,18.315h-4.184l-1.662-4.078h-7.691l-1.662,4.078h-4.078l7.794-18.315Zm.517,10.7-2.415-5.9-2.415,5.9Zm25.086,1.742-4.082-12.366h-3.427l-4.078,12.366-3.77-12.317H302.5l6.212,18.315h3.481l4.1-11.9,4.1,11.9h3.481l6.212-18.315h-4.184Zm14.238,2.313v-3.819h8.574v-3.56h-8.574v-3.69h9.742v-3.56H332.4v18.186H346.25v-3.56h-9.871Z" transform="translate(-88.99 -22.399)" fill="#fff"/>
    <path id="Path_1085" data-name="Path 1085" d="M66.3,72.368l-.011-5.8a.228.228,0,0,1,.167-.19.216.216,0,0,1,.205.065L75.412,75.2,77.9,72.71l-5.318-5.325,0,0a1.152,1.152,0,0,1-.377-.852c0-.011,0-5.82,0-5.82a.222.222,0,0,1,.384-.133L81.3,69.31l8.711-8.734a.247.247,0,0,1,.167-.076.216.216,0,0,1,.221.217v5.9a1.327,1.327,0,0,1-.491.924l-.019.019L75.8,81.634a.537.537,0,0,1-.388.186.493.493,0,0,1-.335-.133l-8.426-8.414A1.2,1.2,0,0,1,66.3,72.368ZM79.581,89.539a.537.537,0,0,0-.186-.388L65.312,75.061l-.019-.019a1.313,1.313,0,0,0-.921-.491h-5.9a.216.216,0,0,0-.217.221.237.237,0,0,0,.076.167L67.07,83.65l-8.734,8.711a.222.222,0,0,0,.133.384h5.82a1.158,1.158,0,0,0,.852-.377l0,0,5.322-5.322,2.492,2.492L64.2,98.287a.218.218,0,0,0-.065.205.232.232,0,0,0,.19.171l5.8-.011a1.193,1.193,0,0,0,.909-.358l8.414-8.426A.481.481,0,0,0,79.581,89.539ZM96.021,94,87.6,85.583a.487.487,0,0,0-.339-.133.537.537,0,0,0-.388.186L72.779,99.714l-.019.019a1.313,1.313,0,0,0-.491.924v5.892a.216.216,0,0,0,.221.217.237.237,0,0,0,.167-.076l8.711-8.734,8.711,8.734a.222.222,0,0,0,.384-.133s0-5.808,0-5.82a1.158,1.158,0,0,0-.377-.852l0,0L84.765,94.56l2.492-2.492,8.753,8.756a.218.218,0,0,0,.205.065.222.222,0,0,0,.167-.19l-.011-5.8A1.167,1.167,0,0,0,96.021,94Zm-.3-10.381,8.734-8.711a.222.222,0,0,0-.133-.384H98.5a1.158,1.158,0,0,0-.852.377l0,0-5.322,5.322-2.492-2.492,8.756-8.753a.218.218,0,0,0,.065-.205.222.222,0,0,0-.19-.167l-5.8.011a1.208,1.208,0,0,0-.909.358L83.346,77.4a.487.487,0,0,0-.133.339.537.537,0,0,0,.186.388L97.478,92.213l.019.019a1.313,1.313,0,0,0,.921.491h5.9a.216.216,0,0,0,.217-.221.237.237,0,0,0-.076-.167Z" transform="translate(0 0)" fill="#fff"/>
  </g>
</svg>
