<svg xmlns="http://www.w3.org/2000/svg" width="33.689" height="27.379" viewBox="0 0 33.689 27.379">
  <path id="logo-twitter" d="M883.082,85.441c12.713,0,19.666-10.532,19.666-19.666q0-.449-.019-.893a14.069,14.069,0,0,0,3.447-3.579,13.791,13.791,0,0,1-3.969,1.088,6.936,6.936,0,0,0,3.039-3.823,13.853,13.853,0,0,1-4.389,1.678,6.918,6.918,0,0,0-11.779,6.3,19.622,19.622,0,0,1-14.247-7.221,6.917,6.917,0,0,0,2.139,9.227,6.865,6.865,0,0,1-3.13-.865c0,.029,0,.058,0,.088a6.915,6.915,0,0,0,5.545,6.776,6.9,6.9,0,0,1-3.121.118,6.919,6.919,0,0,0,6.457,4.8,13.868,13.868,0,0,1-8.584,2.959,14.037,14.037,0,0,1-1.649-.1,19.567,19.567,0,0,0,10.6,3.1" transform="translate(-872.487 -58.063)" fill="#fff"/>
</svg>
