<svg id="logo-instagram" xmlns="http://www.w3.org/2000/svg" width="27.911" height="27.91" viewBox="0 0 27.911 27.91">
  <path id="Path_970" data-name="Path 970" d="M436.727,50.2c3.726,0,4.167.014,5.639.081a7.719,7.719,0,0,1,2.591.481,4.622,4.622,0,0,1,2.649,2.649A7.727,7.727,0,0,1,448.086,56c.067,1.472.081,1.913.081,5.639s-.014,4.168-.081,5.639a7.728,7.728,0,0,1-.481,2.591,4.622,4.622,0,0,1-2.649,2.649,7.728,7.728,0,0,1-2.591.481c-1.471.067-1.913.081-5.639.081s-4.168-.014-5.639-.081a7.728,7.728,0,0,1-2.591-.481,4.621,4.621,0,0,1-2.648-2.649,7.716,7.716,0,0,1-.481-2.591c-.067-1.472-.081-1.913-.081-5.639s.014-4.168.081-5.639a7.716,7.716,0,0,1,.481-2.591,4.621,4.621,0,0,1,2.648-2.649,7.72,7.72,0,0,1,2.591-.481c1.472-.067,1.913-.081,5.639-.081m0-2.515c-3.79,0-4.266.016-5.754.084a10.244,10.244,0,0,0-3.387.649A7.135,7.135,0,0,0,423.5,52.5a10.25,10.25,0,0,0-.649,3.387c-.068,1.488-.084,1.964-.084,5.754s.016,4.265.084,5.754a10.251,10.251,0,0,0,.649,3.387,7.135,7.135,0,0,0,4.082,4.082,10.244,10.244,0,0,0,3.387.649c1.488.068,1.964.084,5.754.084s4.265-.016,5.754-.084a10.242,10.242,0,0,0,3.387-.649,7.135,7.135,0,0,0,4.082-4.082A10.239,10.239,0,0,0,450.6,67.4c.068-1.488.084-1.964.084-5.754s-.016-4.265-.084-5.754a10.239,10.239,0,0,0-.649-3.387,7.135,7.135,0,0,0-4.082-4.082,10.243,10.243,0,0,0-3.387-.649c-1.489-.068-1.964-.084-5.754-.084" transform="translate(-422.771 -47.687)" fill="#fff"/>
  <path id="Path_971" data-name="Path 971" d="M450.613,68.362a7.166,7.166,0,1,0,7.166,7.166,7.166,7.166,0,0,0-7.166-7.166m0,11.818a4.652,4.652,0,1,1,4.652-4.652,4.652,4.652,0,0,1-4.652,4.652" transform="translate(-436.375 -61.573)" fill="#fff"/>
</svg>
