<svg xmlns="http://www.w3.org/2000/svg" width="104.575" height="104.561" viewBox="0 0 104.575 104.561">
  <g id="f_logo" transform="translate(0 -0.01)">
    <path id="Path_1079" data-name="Path 1079" d="M45.447,48.357C38.681,41.511,32.32,35.136,26.06,28.652a4.733,4.733,0,0,1-.984-2.945c-.109-3.966-.043-7.938-.043-13.12L45.5,33.009c2-2.026,3.763-3.792,5.985-6.035-3.589-3.466-7.237-6.607-10.377-10.189a12.325,12.325,0,0,1-2.591-6.252c-.427-3.293-.109-6.672-.109-10.384,6.781,6.867,13.2,13.373,19.763,20.023C65.354,12.942,71.788,6.479,78.214.01c.311.152.615.311.926.463-.6,6.3,2.207,12.751-4.226,18.533C64.812,28.08,55.6,38.154,45.454,48.372Z" transform="translate(-6.912)" fill="#fff"/>
    <path id="Path_1080" data-name="Path 1080" d="M77.717,45.248C84.3,38.677,90.663,32.28,97.089,25.956a3.6,3.6,0,0,1,2.265-.854c4.183-.08,8.373-.036,13.011-.036-6.889,6.8-13.424,13.236-20.241,19.958,2.627,2.323,4.552,4.031,6.875,6.086,3.264-3.365,6.549-7.056,10.182-10.363a9.79,9.79,0,0,1,5.333-2.236c3.546-.347,7.157-.1,11.535-.1-7.157,7.012-13.713,13.431-20.364,19.944,7.048,7.027,13.5,13.46,19.966,19.9l-.369.9c-4.494,0-8.988.058-13.482-.058a3.812,3.812,0,0,1-2.055-1.317Q94.256,62.337,78.81,46.84a13.794,13.794,0,0,1-1.1-1.585Z" transform="translate(-21.475 -6.921)" fill="#fff"/>
    <path id="Path_1081" data-name="Path 1081" d="M12.867,98.045c7.2-7.128,13.749-13.6,20.537-20.327-2.308-2.12-4.147-3.792-6.527-5.977-3.148,3.271-6.469,6.549-9.574,10.015a7.573,7.573,0,0,1-6.621,2.808C7.352,84.347,4,84.513.181,84.513c6.933-6.672,13.46-12.953,20.335-19.575C13.12,57.709,6.556,51.3,0,44.886c.2-.34.391-.673.586-1.013,4.385,0,8.778-.072,13.156.065a4.3,4.3,0,0,1,2.381,1.44q15.37,15.316,30.668,30.7a14.765,14.765,0,0,1,1.266,1.809c-6.542,6.477-13,12.932-19.56,19.3A4.227,4.227,0,0,1,25.834,98c-3.973.087-7.946.036-12.975.036Z" transform="translate(0 -12.116)" fill="#fff"/>
    <path id="Path_1082" data-name="Path 1082" d="M84.593,125.949c-7.157-7.208-13.554-13.663-20.241-20.4-6.7,6.831-13.062,13.315-19.43,19.8-.3-.137-.593-.282-.9-.42,0-4.487-.058-8.973.065-13.453.022-.695.774-1.455,1.353-2.033Q60.607,94.2,75.829,79.005a22.958,22.958,0,0,1,2.185-1.635c4.487,4.573,8.467,9.74,13.5,13.5,7.6,5.666,7.114,13.033,6.354,21.058-6.614-6.7-13.076-13.243-19.9-20.154-2.142,2.656-3.712,4.588-5.63,6.962,2.829,2.837,5.992,6.252,9.422,9.371a7.912,7.912,0,0,1,2.873,6.947c-.224,3.227-.051,6.491-.051,10.891Z" transform="translate(-12.162 -21.378)" fill="#fff"/>
  </g>
</svg>
