<svg xmlns="http://www.w3.org/2000/svg" width="30.858" height="20.018" viewBox="0 0 30.858 20.018">
  <path id="logo-youtube" d="M450.484,258.831a3.733,3.733,0,0,0-2.728-2.528c-2.406-.6-12.056-.6-12.056-.6s-9.65,0-12.056.6a3.733,3.733,0,0,0-2.728,2.528,37.05,37.05,0,0,0,0,13.766,3.733,3.733,0,0,0,2.728,2.528c2.406.6,12.056.6,12.056.6s9.65,0,12.056-.6a3.733,3.733,0,0,0,2.728-2.528,37.046,37.046,0,0,0,0-13.766M432.614,270v-8.579l8.017,4.29Z" transform="translate(-420.271 -255.705)" fill="#fff"/>
</svg>
