<svg xmlns="http://www.w3.org/2000/svg" width="449.736" height="104.561" viewBox="0 0 449.736 104.561">
  <g id="fanshawe-logo-white-1200" transform="translate(-58.26 -60.5)">
    <path id="Path_1084" data-name="Path 1084" d="M205.814,114.2h19.609v8.218H205.814v15.912H196.77v-41.1h31.292v8.218H205.805V114.2ZM252.3,96.942l17.614,41.393h-9.456l-3.757-9.216H239.315l-3.757,9.216h-9.216l17.614-41.393Zm1.169,24.191-5.459-13.325-5.459,13.325Zm48.175,1.41L282.384,97.235h-8.339v41.1h8.923V112.2l19.91,26.134h7.694v-41.1h-8.923v25.308Zm34.782-8.8c-7.1-1.823-8.863-2.7-8.863-5.4v-.12c0-1.994,1.823-3.585,5.287-3.585s7.049,1.53,10.686,4.049l4.7-6.808a23.807,23.807,0,0,0-15.268-5.227c-8.4,0-14.382,4.934-14.382,12.388v.12c0,8.158,5.347,10.453,13.626,12.568,6.869,1.762,8.278,2.94,8.278,5.227v.12c0,2.407-2.235,3.877-5.932,3.877-4.694,0-8.571-1.934-12.267-4.986l-5.347,6.4a26.18,26.18,0,0,0,17.443,6.576c8.863,0,15.087-4.582,15.087-12.74v-.12C349.463,118.907,344.761,115.906,336.422,113.74Zm45.949-.241H365.693V97.235H356.65v41.1h9.044v-16.5h16.677v16.5h9.044v-41.1h-9.044Zm39.871-16.557,17.614,41.393H430.4l-3.757-9.216H409.261l-3.757,9.216h-9.215L413.9,96.942Zm1.169,24.191-5.459-13.325-5.459,13.325Zm56.695,3.937-9.224-27.948h-7.746L453.92,125.07,445.4,97.235h-9.688l14.038,41.393h7.866l9.276-26.89,9.276,26.89h7.866l14.038-41.393h-9.456Zm32.177,5.227v-8.631h19.377V113.62H512.283v-8.339H534.3V97.235h-31v41.1h31.292v-8.046H512.283Z" transform="translate(-26.595 -5.073)" fill="#fff"/>
    <path id="Path_1085" data-name="Path 1085" d="M76.425,87.321,76.4,74.22a.514.514,0,0,1,.378-.43.488.488,0,0,1,.464.146L97.022,93.726l5.631-5.631L90.635,76.06l-.009-.009a2.6,2.6,0,0,1-.851-1.926c0-.026.009-13.153.009-13.153a.5.5,0,0,1,.868-.3L110.338,80.41l19.686-19.738a.557.557,0,0,1,.378-.172.489.489,0,0,1,.5.49V74.315a3,3,0,0,1-1.109,2.089l-.043.043L97.908,108.263a1.213,1.213,0,0,1-.877.421,1.114,1.114,0,0,1-.756-.3L77.233,89.367A2.722,2.722,0,0,1,76.425,87.321Zm30.019,38.805a1.213,1.213,0,0,0-.421-.877L74.2,93.408l-.043-.043a2.967,2.967,0,0,0-2.08-1.109H58.75a.489.489,0,0,0-.49.5.535.535,0,0,0,.172.378L78.17,112.819,58.432,132.505a.5.5,0,0,0,.3.868H71.886a2.618,2.618,0,0,0,1.926-.851l.009-.009,12.027-12.027,5.631,5.631L71.688,145.9a.493.493,0,0,0-.146.464.524.524,0,0,0,.43.387l13.1-.026a2.7,2.7,0,0,0,2.055-.808l19.016-19.042A1.087,1.087,0,0,0,106.444,126.126ZM143.6,136.2l-19.041-19.016a1.1,1.1,0,0,0-.765-.3,1.213,1.213,0,0,0-.877.421L91.073,149.122l-.043.043a2.968,2.968,0,0,0-1.109,2.089v13.316a.489.489,0,0,0,.5.49.535.535,0,0,0,.378-.172l19.686-19.738,19.686,19.738a.5.5,0,0,0,.868-.3s.009-13.127.009-13.153a2.618,2.618,0,0,0-.851-1.926l-.009-.009-12.027-12.027,5.631-5.631,19.781,19.789a.494.494,0,0,0,.464.146.5.5,0,0,0,.378-.43l-.026-13.1A2.637,2.637,0,0,0,143.6,136.2Zm-.671-23.46,19.738-19.686a.5.5,0,0,0-.3-.868H149.212a2.618,2.618,0,0,0-1.926.851l-.009.009-12.027,12.027-5.631-5.631L149.41,79.662a.494.494,0,0,0,.146-.464.5.5,0,0,0-.43-.378l-13.1.026a2.73,2.73,0,0,0-2.055.808L114.955,98.686a1.1,1.1,0,0,0-.3.765,1.213,1.213,0,0,0,.421.877l31.816,31.842.043.043a2.966,2.966,0,0,0,2.08,1.109h13.325a.489.489,0,0,0,.49-.5.535.535,0,0,0-.172-.378Z" transform="translate(0 0)" fill="#fff"/>
  </g>
</svg>
